<svg xmlns="http://www.w3.org/2000/svg" viewBox="0 0 440 280"
     role="img" aria-label="Estate Management" preserveAspectRatio="xMidYMid slice">
  <defs>
    <linearGradient id="g" x1="0" y1="0" x2="1" y2="1">
      <stop offset="0%" stop-color="#20302F"/>
      <stop offset="100%" stop-color="#2F4645"/>
    </linearGradient>
  </defs>
  <rect width="440" height="280" fill="url(#g)"/>
  <g>
    <rect x="30" y="34" width="44" height="38" rx="3" fill="none" stroke="#7FA8A2" stroke-width="1.6" opacity="0.25"/>
    <rect x="30" y="146" width="44" height="38" rx="3" fill="none" stroke="#7FA8A2" stroke-width="1.6" opacity="0.45"/>
    <rect x="30" y="202" width="44" height="38" rx="3" fill="none" stroke="#7FA8A2" stroke-width="1.6" opacity="0.55"/>
    <rect x="94" y="90" width="44" height="38" rx="3" fill="none" stroke="#7FA8A2" stroke-width="1.6" opacity="0.45"/>
    <rect x="94" y="146" width="44" height="38" rx="3" fill="none" stroke="#7FA8A2" stroke-width="1.6" opacity="0.55"/>
    <rect x="158" y="34" width="44" height="38" rx="3" fill="none" stroke="#7FA8A2" stroke-width="1.6" opacity="0.45"/>
    <rect x="158" y="90" width="44" height="38" rx="3" fill="none" stroke="#7FA8A2" stroke-width="1.6" opacity="0.55"/>
    <rect x="158" y="202" width="44" height="38" rx="3" fill="none" stroke="#7FA8A2" stroke-width="1.6" opacity="0.35"/>
    <rect x="222" y="34" width="44" height="38" rx="3" fill="none" stroke="#7FA8A2" stroke-width="1.6" opacity="0.55"/>
    <rect x="222" y="146" width="44" height="38" rx="3" fill="none" stroke="#7FA8A2" stroke-width="1.6" opacity="0.35"/>
    <rect x="222" y="202" width="44" height="38" rx="3" fill="none" stroke="#7FA8A2" stroke-width="1.6" opacity="0.45"/>
    <rect x="286" y="90" width="44" height="38" rx="3" fill="none" stroke="#7FA8A2" stroke-width="1.6" opacity="0.35"/>
    <rect x="286" y="146" width="44" height="38" rx="3" fill="none" stroke="#7FA8A2" stroke-width="1.6" opacity="0.45"/>
    <rect x="350" y="34" width="44" height="38" rx="3" fill="none" stroke="#7FA8A2" stroke-width="1.6" opacity="0.35"/>
    <rect x="350" y="90" width="44" height="38" rx="3" fill="none" stroke="#7FA8A2" stroke-width="1.6" opacity="0.45"/>
    <rect x="350" y="202" width="44" height="38" rx="3" fill="none" stroke="#7FA8A2" stroke-width="1.6" opacity="0.25"/>
  </g>
  <rect width="440" height="280" fill="none" stroke="rgba(255,255,255,.08)" stroke-width="2"/>
</svg>
